<svg width="16" height="16" viewBox="0 0 16 16" fill="none" xmlns="http://www.w3.org/2000/svg">
<path d="M3.39394 3.97699C3.03995 3.97752 2.70062 4.11841 2.45036 4.36876C2.2001 4.61912 2.05933 4.9585 2.05894 5.31249V9.26549C2.05637 9.51923 2.12728 9.7683 2.26311 9.98265C2.39894 10.197 2.59389 10.3675 2.82444 10.4735C2.94472 10.5291 3.08217 10.5347 3.20658 10.4891C3.33099 10.4434 3.43219 10.3502 3.48794 10.23C3.53047 10.1373 3.5434 10.0338 3.52497 9.93347C3.50654 9.83317 3.45764 9.74099 3.38494 9.66949C3.34476 9.62711 3.29735 9.59223 3.24494 9.56649C3.18784 9.54003 3.13974 9.49742 3.1066 9.44392C3.07345 9.39043 3.05671 9.32839 3.05844 9.26549V5.31249C3.05844 5.12449 3.20594 4.97749 3.39394 4.97749H5.49994C6.41394 4.97749 7.30544 4.79499 8.12894 4.44499L8.89394 4.16099L9.91544 3.78149C9.97814 3.75955 10.0358 3.72533 10.0852 3.68083C10.1345 3.63634 10.1745 3.58246 10.2028 3.52234C10.231 3.46222 10.247 3.39708 10.2499 3.3307C10.2527 3.26433 10.2422 3.19806 10.2191 3.13577C10.196 3.07347 10.1608 3.01641 10.1154 2.9679C10.07 2.91939 10.0154 2.88042 9.95475 2.85325C9.89412 2.82609 9.82869 2.81128 9.76227 2.80969C9.69586 2.8081 9.62979 2.81976 9.56794 2.84399L7.75994 3.51549C7.04552 3.82042 6.27671 3.97741 5.49994 3.97699H3.39394ZM1.22794 14.692C1.27426 14.7386 1.32934 14.7756 1.39001 14.8008C1.45068 14.826 1.51573 14.839 1.58144 14.839C1.64714 14.839 1.7122 14.826 1.77286 14.8008C1.83353 14.7756 1.88861 14.7386 1.93494 14.692L4.69194 11.935L5.65694 13.6225C5.89578 14.0413 6.24125 14.3893 6.65824 14.6313C7.07522 14.8732 7.54884 15.0004 8.03094 15C8.56758 14.9997 9.09207 14.8401 9.53794 14.5415C9.64328 14.4714 9.71812 14.3639 9.74735 14.2408C9.77658 14.1176 9.75803 13.988 9.69544 13.878L8.18244 11.2255L12.9424 12.9955V13.2445C12.9424 13.3771 12.9951 13.5043 13.0889 13.598C13.1827 13.6918 13.3098 13.7445 13.4424 13.7445C13.575 13.7445 13.7022 13.6918 13.796 13.598C13.8898 13.5043 13.9424 13.3771 13.9424 13.2445V2.68499L14.7739 1.85349C14.8217 1.80736 14.8598 1.75219 14.886 1.69119C14.9122 1.63019 14.926 1.56458 14.9266 1.49819C14.9271 1.4318 14.9145 1.36596 14.8893 1.30451C14.8642 1.24306 14.8271 1.18724 14.7801 1.14029C14.7332 1.09334 14.6774 1.05622 14.6159 1.03108C14.5545 1.00594 14.4886 0.993285 14.4222 0.993862C14.3558 0.994439 14.2902 1.00823 14.2292 1.03444C14.1682 1.06064 14.1131 1.09873 14.0669 1.14649L13.0909 2.12249L13.0874 2.12599L1.22794 13.985C1.1342 14.0788 1.08154 14.2059 1.08154 14.3385C1.08154 14.4711 1.1342 14.5982 1.22794 14.692ZM12.9424 11.485V11.928L8.15194 10.148C7.84826 10.0189 7.53581 9.91142 7.21694 9.82649H7.21544L7.21344 9.82549C7.10194 9.79549 6.98644 9.77799 6.87344 9.75399L12.9409 3.68599V11.48L12.9424 11.485ZM5.99544 10.632C6.25291 10.6534 6.50855 10.693 6.76044 10.7505L8.56444 13.914C7.80594 14.164 6.92044 13.824 6.52594 13.128L5.42494 11.202L5.89744 10.7295L5.99544 10.632Z" fill="white"/>
</svg>
