<svg width="22" height="22" viewBox="0 0 22 22" fill="none" xmlns="http://www.w3.org/2000/svg">
<g clip-path="url(#clip0_1134_1192)">
<path d="M15.3751 0.0111927C15.3284 -0.0410573 13.644 0.0318178 12.1783 1.62269C10.7125 3.21219 10.938 5.03544 10.971 5.08219C11.004 5.12894 13.061 5.20182 14.3741 3.35244C15.6873 1.50307 15.4219 0.0648177 15.3751 0.0111927ZM19.9319 16.1441C19.8659 16.0121 16.735 14.4473 17.0265 11.4388C17.318 8.42894 19.3296 7.60394 19.3613 7.51457C19.3929 7.42519 18.5404 6.42832 17.637 5.92369C16.9737 5.56791 16.2397 5.36408 15.4879 5.32694C15.3394 5.32282 14.8238 5.19632 13.7636 5.48644C13.0651 5.67757 11.4908 6.29632 11.0576 6.32107C10.6231 6.34582 9.33065 5.60332 7.94052 5.40669C7.0509 5.23482 6.10765 5.58682 5.43252 5.85769C4.75877 6.12719 3.47727 6.89444 2.58077 8.93357C1.68427 10.9713 2.15315 14.1998 2.48865 15.2036C2.82415 16.2059 3.34802 17.8491 4.23902 19.0481C5.03102 20.4011 6.08152 21.3402 6.52015 21.6592C6.95877 21.9782 8.19627 22.1899 9.05427 21.7513C9.74452 21.3278 10.9903 21.0844 11.4825 21.1023C11.9734 21.1202 12.9414 21.3141 13.9328 21.8434C14.7179 22.1143 15.4604 22.0016 16.2043 21.6991C16.9481 21.3952 18.0248 20.2429 19.2815 17.9068C19.7586 16.8206 19.9759 16.2334 19.9319 16.1441Z" fill="black"/>
</g>
<defs>
<clipPath id="clip0_1134_1192">
<rect width="22" height="22" fill="white"/>
</clipPath>
</defs>
</svg>
