<svg width="22" height="22" viewBox="0 0 22 22" fill="none" xmlns="http://www.w3.org/2000/svg">
<path d="M10.5764 7.62828C10.7219 7.23507 11.2782 7.23507 11.4236 7.62828L12.0757 9.39065C12.1672 9.63787 12.3622 9.83285 12.6094 9.92433L14.3718 10.5764C14.765 10.7219 14.765 11.2782 14.3718 11.4236L12.6094 12.0757C12.3622 12.1672 12.1672 12.3622 12.0757 12.6094L11.4236 14.3718C11.2782 14.765 10.7219 14.765 10.5764 14.3718L9.92433 12.6094C9.83285 12.3622 9.63787 12.1672 9.39065 12.0757L7.62828 11.4236C7.23507 11.2782 7.23507 10.7219 7.62828 10.5764L9.39065 9.92433C9.63787 9.83285 9.83285 9.63787 9.92433 9.39065L10.5764 7.62828Z" stroke="#B7B7B7" stroke-width="1.375"/>
<path d="M11 20.1667C16.0627 20.1667 20.1667 16.0627 20.1667 11C20.1667 5.93743 16.0627 1.83337 11 1.83337C5.93743 1.83337 1.83337 5.93743 1.83337 11C1.83337 16.0627 5.93743 20.1667 11 20.1667Z" stroke="#B7B7B7" stroke-width="1.375"/>
<path d="M7.33337 7.33337C7.95054 4.09588 9.36003 1.83337 11 1.83337C12.64 1.83337 14.0495 4.09588 14.6667 7.33337" stroke="#B7B7B7" stroke-width="1.375"/>
<path d="M7.33337 14.6666C7.95054 17.9041 9.36003 20.1666 11 20.1666C12.64 20.1666 14.0495 17.9041 14.6667 14.6666" stroke="#B7B7B7" stroke-width="1.375"/>
<path d="M1.83337 11H4.12504M20.1667 11H17.875" stroke="#B7B7B7" stroke-width="1.375"/>
</svg>
