<svg width="22" height="22" viewBox="0 0 22 22" fill="none" xmlns="http://www.w3.org/2000/svg">
<path d="M10.4705 6.78539C10.6524 6.29387 11.3476 6.29387 11.5294 6.78539L12.3446 8.98835C12.4589 9.29737 12.7027 9.54111 13.0117 9.65542L15.2147 10.4706C15.7061 10.6525 15.7062 11.3477 15.2147 11.5295L13.0117 12.3447C12.7027 12.459 12.4589 12.7028 12.3446 13.0118L11.5294 15.2148C11.3476 15.7062 10.6524 15.7063 10.4705 15.2148L9.6553 13.0118C9.54099 12.7028 9.29725 12.459 8.98822 12.3447L6.78526 11.5295C6.29375 11.3477 6.29375 10.6525 6.78526 10.4706L8.98822 9.65542C9.29725 9.54111 9.54099 9.29737 9.6553 8.98835L10.4705 6.78539Z" fill="white"/>
<path fill-rule="evenodd" clip-rule="evenodd" d="M2.54835 10.3124H4.12504C4.50473 10.3124 4.81254 10.6202 4.81254 10.9999C4.81254 11.3796 4.50473 11.6874 4.12504 11.6874H2.54835C2.82142 15.0908 5.10421 17.9272 8.20914 19.009L8.20774 19.0069C7.5088 17.9381 6.97729 16.47 6.65804 14.7953C6.58693 14.4224 6.83166 14.0623 7.20464 13.9913C7.57761 13.9201 7.93761 14.1649 8.00871 14.5379C8.30663 16.1006 8.78844 17.3826 9.35857 18.2544C9.94092 19.145 10.5217 19.4791 11 19.4791C11.4784 19.4791 12.0592 19.145 12.6415 18.2544C13.2117 17.3826 13.6935 16.1006 13.9914 14.5379C14.0624 14.1649 14.4225 13.9201 14.7954 13.9913C15.1684 14.0623 15.4131 14.4224 15.342 14.7953C15.0228 16.47 14.4913 17.9381 13.7924 19.0069L13.7909 19.009C16.8959 17.9272 19.1786 15.0908 19.4517 11.6874H17.875C17.4954 11.6874 17.1875 11.3796 17.1875 10.9999C17.1875 10.6202 17.4954 10.3124 17.875 10.3124H19.4517C19.1786 6.90902 16.8959 4.07262 13.7909 2.99077L13.7924 2.99293C14.4913 4.06176 15.0228 5.52981 15.342 7.20452C15.4131 7.57749 15.1684 7.93749 14.7954 8.00859C14.4225 8.07969 14.0624 7.83497 13.9914 7.46199C13.6935 5.8992 13.2117 4.61725 12.6415 3.74546C12.0592 2.85491 11.4784 2.52075 11 2.52075C10.5217 2.52075 9.94092 2.85491 9.35857 3.74546C8.78844 4.61725 8.30663 5.8992 8.00871 7.46199C7.93761 7.83497 7.57761 8.07969 7.20464 8.00859C6.83166 7.93749 6.58693 7.57749 6.65804 7.20452C6.97729 5.52981 7.5088 4.06176 8.20774 2.99293L8.20914 2.99078C5.10421 4.07262 2.82142 6.90903 2.54835 10.3124ZM11 1.14575C5.55774 1.14575 1.14587 5.55761 1.14587 10.9999C1.14587 16.4423 5.55774 20.8541 11 20.8541C16.4424 20.8541 20.8542 16.4423 20.8542 10.9999C20.8542 5.55761 16.4424 1.14575 11 1.14575Z" fill="white"/>
</svg>
