<svg width="18" height="18" viewBox="0 0 18 18" fill="none" xmlns="http://www.w3.org/2000/svg">
<path fill-rule="evenodd" clip-rule="evenodd" d="M10.0948 2C11.2915 1.99999 12.2394 1.99998 12.9812 2.09972C13.7446 2.20236 14.3625 2.41862 14.8499 2.90592C15.3371 3.39323 15.5534 4.01116 15.6561 4.77459C15.7558 5.5164 15.7558 6.46425 15.7558 7.66091V10.3391C15.7558 11.5357 15.7558 12.4836 15.6561 13.2254C15.5534 13.9888 15.3371 14.6068 14.8499 15.0941C14.3625 15.5814 13.7446 15.7976 12.9812 15.9003C12.2394 16 11.2915 16 10.0949 16H9.04462C7.84798 16 6.90007 16 6.15827 15.9003C5.39483 15.7976 4.77691 15.5814 4.2896 15.0941C3.87515 14.6796 3.65676 14.1707 3.53758 13.5581H2.8953C2.53568 13.5581 2.24414 13.2666 2.24414 12.907C2.24414 12.5473 2.53568 12.2558 2.8953 12.2558H3.40609C3.38366 11.7025 3.38367 11.0668 3.38368 10.3391V9.65116H2.8953C2.53568 9.65116 2.24414 9.35964 2.24414 9C2.24414 8.64036 2.53568 8.34884 2.8953 8.34884H3.38368V7.66094C3.38367 6.93322 3.38366 6.2975 3.40609 5.74419H2.8953C2.53568 5.74419 2.24414 5.45265 2.24414 5.09302C2.24414 4.7334 2.53568 4.44186 2.8953 4.44186H3.53758C3.65676 3.82929 3.87515 3.32037 4.2896 2.90592C4.77691 2.41862 5.39483 2.20236 6.15827 2.09972C6.90008 1.99998 7.84792 1.99999 9.04462 2H10.0948ZM9.73251 5.25581C8.74353 5.25581 7.94182 6.05754 7.94182 7.04651C7.94182 8.0355 8.74353 8.83721 9.73251 8.83721C10.7215 8.83721 11.5232 8.0355 11.5232 7.04651C11.5232 6.05754 10.7215 5.25581 9.73251 5.25581ZM11.5737 10.002C10.4491 9.31718 9.0161 9.31718 7.89148 10.002C7.6896 10.118 7.22988 10.3831 6.98846 10.6248C6.83522 10.7782 6.6737 10.9959 6.64422 11.2717C6.61258 11.5678 6.74149 11.8397 6.97709 12.0693C7.33336 12.4165 7.80976 12.7442 8.45656 12.7442H11.0086C11.6554 12.7442 12.1318 12.4165 12.488 12.0693C12.7236 11.8397 12.8526 11.5678 12.8209 11.2717C12.7915 10.9959 12.6299 10.7782 12.4767 10.6248C12.2353 10.3831 11.7755 10.118 11.5737 10.002Z" fill="white" fill-opacity="0.5"/>
</svg>
