<svg width="20" height="20" viewBox="0 0 20 20" fill="none" xmlns="http://www.w3.org/2000/svg">
<path d="M13 10.675V13.825C13 16.45 11.95 17.5 9.325 17.5H6.175C3.55 17.5 2.5 16.45 2.5 13.825V10.675C2.5 8.04997 3.55 6.99997 6.175 6.99997H9.325C11.95 6.99997 13 8.04997 13 10.675Z" stroke="white" stroke-linecap="round" stroke-linejoin="round"/>
<path d="M17.5 6.175V9.325C17.5 11.95 16.45 13 13.825 13H13V10.675C13 8.05 11.95 7 9.325 7H7V6.175C7 3.55 8.05 2.5 10.675 2.5H13.825C16.45 2.5 17.5 3.55 17.5 6.175Z" stroke="white" stroke-linecap="round" stroke-linejoin="round"/>
</svg>
