<svg width="20" height="20" viewBox="0 0 20 20" fill="none" xmlns="http://www.w3.org/2000/svg">
<path fill-rule="evenodd" clip-rule="evenodd" d="M9.85417 0C4.41186 0 0 4.41186 0 9.85417C0 15.2965 4.41186 19.7083 9.85417 19.7083C15.2965 19.7083 19.7083 15.2965 19.7083 9.85417C19.7083 4.41186 15.2965 0 9.85417 0ZM10.9469 6.05358L10.3197 5.06801C10.1029 4.72733 9.60548 4.72733 9.38868 5.06801L8.7615 6.05358C8.06786 7.14346 7.14346 8.06786 6.05358 8.76141L5.06801 9.38868C4.72733 9.60548 4.72733 10.1029 5.06801 10.3197L6.05358 10.9468C7.14346 11.6405 8.06786 12.5648 8.76141 13.6548L9.38868 14.6404C9.60548 14.981 10.1029 14.981 10.3197 14.6404L10.9468 13.6548C11.6405 12.5648 12.5648 11.6405 13.6548 10.9469L14.6404 10.3197C14.981 10.1029 14.981 9.60548 14.6404 9.38868L13.6548 8.7615C12.5648 8.06786 11.6405 7.14346 10.9469 6.05358Z" fill="white"/>
</svg>
