<svg width="22" height="22" viewBox="0 0 22 22" fill="none" xmlns="http://www.w3.org/2000/svg">
<path d="M10.5768 6.64894C10.7739 6.33923 11.226 6.33923 11.4231 6.64894L11.9934 7.54491C12.6239 8.53572 13.4642 9.37603 14.4551 10.0066L15.351 10.5769C15.6608 10.7739 15.6608 11.226 15.351 11.4231L14.4551 11.9934C13.4642 12.624 12.6239 13.4643 11.9934 14.4551L11.4231 15.351C11.226 15.6608 10.7739 15.6608 10.5768 15.351L10.0066 14.4551C9.37599 13.4643 8.53569 12.624 7.54488 11.9934L6.64891 11.4231C6.3392 11.226 6.3392 10.7739 6.64891 10.5769L7.54488 10.0066C8.53569 9.37603 9.37599 8.53572 10.0066 7.54491L10.5768 6.64894Z" stroke="white" stroke-opacity="0.5" stroke-width="1.375" stroke-linejoin="round"/>
<path d="M11 20.1667C16.0627 20.1667 20.1667 16.0626 20.1667 11C20.1667 5.9374 16.0627 1.83334 11 1.83334C5.93743 1.83334 1.83337 5.9374 1.83337 11C1.83337 16.0626 5.93743 20.1667 11 20.1667Z" stroke="white" stroke-opacity="0.5" stroke-width="1.375" stroke-linejoin="round"/>
</svg>
