<svg width="18" height="18" viewBox="0 0 18 18" fill="none" xmlns="http://www.w3.org/2000/svg">
<path d="M15.0383 5.29168L14.3326 4.58594C14.7374 6.75714 13.6803 9.46114 11.5701 11.5709C9.78776 13.3537 7.5251 14.4183 5.51784 14.4183C5.19146 14.4183 4.87907 14.3808 4.57568 14.3244L5.29042 15.0391C7.06227 16.8109 10.6809 16.0607 13.3704 13.3712C16.064 10.6782 16.8107 7.06353 15.0383 5.29168ZM6.24907 9.42066L8.67717 8.67793L9.4194 6.24982L6.99129 6.99205L6.24907 9.42066Z" fill="white" fill-opacity="0.5"/>
<path d="M13.5419 4.46212C13.3959 3.88284 13.121 3.37402 12.7082 2.96118C10.9363 1.18933 7.32167 1.93605 4.62816 4.62906C1.93915 7.31807 1.18843 10.9372 2.96028 12.7091C3.37312 13.1219 3.88144 13.3968 4.46122 13.5428C6.36252 14.0266 8.97656 13.1049 11.0403 11.0412C13.108 8.97346 14.0297 6.35943 13.5419 4.46212ZM10.3286 6.35343L9.52386 8.98646C9.44439 9.24536 9.24296 9.44629 8.98406 9.52526L6.35253 10.33C6.21167 10.3729 6.06177 10.3768 5.91888 10.3411C5.77599 10.3055 5.64548 10.2317 5.54133 10.1275C5.43715 10.0236 5.36329 9.89328 5.32771 9.75051C5.29213 9.60775 5.29617 9.45798 5.3394 9.31734L6.1441 6.68431C6.22358 6.4254 6.425 6.22447 6.68391 6.1455L9.31544 5.3408C9.45619 5.29748 9.6061 5.29344 9.74898 5.32911C9.89186 5.36479 10.0223 5.43883 10.1261 5.54323C10.3391 5.75565 10.4165 6.06603 10.3286 6.35343Z" fill="white" fill-opacity="0.5"/>
</svg>
