<svg width="18" height="18" viewBox="0 0 18 18" fill="none" xmlns="http://www.w3.org/2000/svg">
<path d="M15.0383 5.29171L14.3326 4.58597C14.7374 6.75717 13.6803 9.46117 11.5701 11.5709C9.78776 13.3537 7.5251 14.4183 5.51784 14.4183C5.19146 14.4183 4.87907 14.3809 4.57568 14.3244L5.29042 15.0391C7.06227 16.811 10.6809 16.0607 13.3704 13.3712C16.064 10.6782 16.8107 7.06356 15.0383 5.29171ZM6.24907 9.42069L8.67717 8.67796L9.4194 6.24986L6.99129 6.99208L6.24907 9.42069Z" fill="white"/>
<path d="M13.5419 4.46209C13.3959 3.88281 13.121 3.37399 12.7082 2.96115C10.9363 1.1893 7.32167 1.93602 4.62816 4.62903C1.93915 7.31804 1.18843 10.9372 2.96028 12.7091C3.37312 13.1219 3.88144 13.3968 4.46122 13.5428C6.36252 14.0266 8.97656 13.1049 11.0403 11.0412C13.108 8.97343 14.0297 6.3594 13.5419 4.46209ZM10.3286 6.3534L9.52386 8.98643C9.44439 9.24533 9.24296 9.44626 8.98406 9.52523L6.35253 10.3299C6.21167 10.3729 6.06177 10.3768 5.91888 10.3411C5.77599 10.3055 5.64548 10.2316 5.54133 10.1275C5.43715 10.0236 5.36329 9.89325 5.32771 9.75048C5.29213 9.60772 5.29617 9.45795 5.3394 9.31731L6.1441 6.68428C6.22358 6.42537 6.425 6.22444 6.68391 6.14547L9.31544 5.34077C9.45619 5.29745 9.6061 5.29341 9.74898 5.32908C9.89186 5.36476 10.0223 5.4388 10.1261 5.5432C10.3391 5.75562 10.4165 6.066 10.3286 6.3534Z" fill="white"/>
</svg>
