<svg width="14" height="14" viewBox="0 0 14 14" fill="none" xmlns="http://www.w3.org/2000/svg">
<path d="M1.4488 10.0156L0.034042 4.54543C-0.187625 3.7311 0.71928 3.07779 1.42084 3.54601L3.22215 4.74688C3.60871 5.0051 4.13447 4.85812 4.3328 4.43734L6.17148 0.525878C6.4997 -0.173344 7.4945 -0.173326 7.8235 0.525119L9.66683 4.4381C9.86516 4.85888 10.3902 5.00432 10.7767 4.74688L12.578 3.54601C13.2804 3.07779 14.1873 3.73188 13.9648 4.54543L12.55 10.0156C12.417 10.5304 11.9527 10.8898 11.4207 10.8898H2.57739C2.04617 10.8898 1.5818 10.5304 1.4488 10.0156ZM12.6387 13.2231C12.6387 12.9011 12.3774 12.6398 12.0554 12.6398H1.94426C1.62226 12.6398 1.36093 12.9011 1.36093 13.2231C1.36093 13.5451 1.62226 13.8064 1.94426 13.8064H12.0554C12.3774 13.8064 12.6387 13.5451 12.6387 13.2231Z" fill="#FDD835"/>
</svg>
