<svg width="16" height="16" viewBox="0 0 16 16" fill="none" xmlns="http://www.w3.org/2000/svg">
<g clip-path="url(#clip0_386_2220)">
<mask id="mask0_386_2220" style="mask-type:luminance" maskUnits="userSpaceOnUse" x="0" y="0" width="16" height="16">
<path d="M16 0H0V16H16V0Z" fill="white"/>
</mask>
<g mask="url(#mask0_386_2220)">
<path d="M2.28572 10.8572V10.2857H1.14286V10.8572C1.14286 11.918 1.56429 12.9354 2.31443 13.6855C3.06457 14.4357 4.08199 14.8572 5.14285 14.8572H6.85715V13.7143H5.14285C4.3851 13.7143 3.65837 13.4132 3.12255 12.8774C2.58674 12.3417 2.28572 11.6149 2.28572 10.8572ZM12.5715 5.14285V5.7143H13.7143V5.14285C13.7143 4.08199 13.2928 3.06457 12.5427 2.31443C11.7926 1.56429 10.7752 1.14286 9.7143 1.14286H8V2.28572H9.7143C10.0895 2.28572 10.461 2.35962 10.8076 2.5032C11.1543 2.64679 11.4693 2.85724 11.7346 3.12256C11.9999 3.38787 12.2103 3.70283 12.3539 4.04948C12.4976 4.39612 12.5715 4.76765 12.5715 5.14285ZM5.14285 5.14285H1.71429C1.25963 5.14285 0.823595 5.32345 0.502105 5.64495C0.180612 5.96645 0 6.4025 0 6.85715V8H1.14286V6.85715C1.14286 6.7056 1.20306 6.56025 1.31023 6.4531C1.41739 6.3459 1.56274 6.2857 1.71429 6.2857H5.14285C5.2944 6.2857 5.43975 6.3459 5.5469 6.4531C5.6541 6.56025 5.7143 6.7056 5.7143 6.85715V8H6.85715V6.85715C6.85715 6.4025 6.67655 5.96645 6.35505 5.64495C6.03355 5.32345 5.5975 5.14285 5.14285 5.14285ZM3.42857 4.57143C3.88065 4.57143 4.32256 4.43738 4.69844 4.18621C5.07435 3.93506 5.3673 3.57808 5.5403 3.16042C5.7133 2.74276 5.75855 2.28318 5.67035 1.83979C5.58215 1.39641 5.3645 0.989135 5.0448 0.66947C4.72515 0.349809 4.31787 0.132115 3.87449 0.0439204C3.43111 -0.0442744 2.97152 0.000990361 2.55386 0.173991C2.1362 0.346991 1.77922 0.639955 1.52807 1.01584C1.27691 1.39173 1.14286 1.83365 1.14286 2.28572C1.14286 2.89193 1.38367 3.4733 1.81233 3.90196C2.24098 4.33062 2.82236 4.57143 3.42857 4.57143ZM3.42857 1.14286C3.6546 1.14286 3.87557 1.20989 4.06351 1.33546C4.25145 1.46104 4.39793 1.63953 4.48444 1.84836C4.57094 2.05719 4.59356 2.28699 4.54947 2.50868C4.50537 2.73037 4.39652 2.93401 4.23669 3.09384C4.07686 3.25367 3.87322 3.36251 3.65153 3.40662C3.42984 3.45071 3.20005 3.42808 2.99122 3.34158C2.78239 3.25507 2.6039 3.10859 2.47832 2.92065C2.35274 2.73271 2.28572 2.51175 2.28572 2.28572C2.28572 1.98261 2.40612 1.69192 2.62045 1.47759C2.83477 1.26327 3.12546 1.14286 3.42857 1.14286ZM14.2857 13.1428H10.8572C10.4025 13.1428 9.96645 13.3235 9.64495 13.6449C9.32345 13.9664 9.14285 14.4025 9.14285 14.8572V16H10.2857V14.8572C10.2857 14.7056 10.3459 14.5603 10.4531 14.4531C10.5603 14.3459 10.7056 14.2857 10.8572 14.2857H14.2857C14.4373 14.2857 14.5826 14.3459 14.6897 14.4531C14.7969 14.5603 14.8572 14.7056 14.8572 14.8572V16H16V14.8572C16 14.4025 15.8194 13.9664 15.4979 13.6449C15.1764 13.3235 14.7403 13.1428 14.2857 13.1428ZM10.2857 10.2857C10.2857 10.7378 10.4198 11.1797 10.6709 11.5556C10.9221 11.9314 11.279 12.2245 11.6967 12.3975C12.1144 12.5705 12.5739 12.6157 13.0174 12.5275C13.4608 12.4393 13.868 12.2216 14.1876 11.9019C14.5073 11.5823 14.725 11.175 14.8132 10.7317C14.9014 10.2882 14.8562 9.82865 14.6832 9.411C14.5101 8.99335 14.2172 8.63635 13.8413 8.3852C13.4654 8.13405 13.0235 8 12.5715 8C11.9652 8 11.3839 8.2408 10.9552 8.66945C10.5266 9.09815 10.2857 9.6795 10.2857 10.2857ZM13.7143 10.2857C13.7143 10.5118 13.6473 10.7327 13.5217 10.9206C13.3961 11.1086 13.2176 11.2551 13.0088 11.3416C12.7999 11.4281 12.5701 11.4507 12.3484 11.4066C12.1267 11.3625 11.9232 11.2536 11.7633 11.0939C11.6034 10.934 11.4946 10.7304 11.4506 10.5087C11.4065 10.287 11.429 10.0572 11.5155 9.84835C11.602 9.63955 11.7485 9.46105 11.9365 9.33545C12.1244 9.2099 12.3454 9.14285 12.5715 9.14285C12.8745 9.14285 13.1652 9.26325 13.3795 9.4776C13.5939 9.6919 13.7143 9.9826 13.7143 10.2857Z" fill="white"/>
</g>
</g>
<defs>
<clipPath id="clip0_386_2220">
<rect width="16" height="16" fill="white"/>
</clipPath>
</defs>
</svg>
