<svg width="18" height="18" viewBox="0 0 18 18" fill="none" xmlns="http://www.w3.org/2000/svg">
<path d="M14.625 4.12448L14.1602 11.6433C14.0414 13.5643 13.9821 14.5248 13.5006 15.2154C13.2625 15.5568 12.956 15.845 12.6005 16.0615C11.8816 16.4995 10.9192 16.4995 8.99452 16.4995C7.06734 16.4995 6.10372 16.4995 5.38429 16.0607C5.0286 15.8438 4.722 15.5551 4.48401 15.2131C4.00266 14.5214 3.94459 13.5596 3.82846 11.6359L3.375 4.12448" stroke="#F2474C" stroke-width="1.58333" stroke-linecap="round"/>
<path d="M2.25 4.12552H15.75M12.0418 4.12552L11.5298 3.06932C11.1897 2.36771 11.0196 2.01691 10.7263 1.79813C10.6612 1.74959 10.5923 1.70642 10.5203 1.66904C10.1954 1.50052 9.80558 1.50052 9.02588 1.50052C8.2266 1.50052 7.827 1.50052 7.49676 1.67611C7.42357 1.71503 7.35373 1.75994 7.28797 1.8104C6.99123 2.03804 6.82547 2.40168 6.49396 3.12896L6.03969 4.12552" stroke="#F2474C" stroke-width="1.58333" stroke-linecap="round"/>
<path d="M7.125 12.375V7.875" stroke="#F2474C" stroke-width="1.58333" stroke-linecap="round"/>
<path d="M10.875 12.375V7.875" stroke="#F2474C" stroke-width="1.58333" stroke-linecap="round"/>
</svg>
