<svg width="24" height="24" viewBox="0 0 24 24" fill="none" xmlns="http://www.w3.org/2000/svg">
<path d="M19.5 5.49929L18.8803 15.5244C18.7219 18.0857 18.6428 19.3664 18.0008 20.2872C17.6833 20.7424 17.2747 21.1266 16.8007 21.4153C15.8421 21.9993 14.559 21.9993 11.9927 21.9993C9.42312 21.9993 8.1383 21.9993 7.17905 21.4142C6.7048 21.125 6.296 20.7401 5.97868 20.2841C5.33688 19.3619 5.25945 18.0794 5.10461 15.5145L4.5 5.49929" stroke="white" stroke-width="1.58333" stroke-linecap="round"/>
<path d="M3 5.50071H21M16.0557 5.50071L15.3731 4.09244C14.9196 3.15697 14.6928 2.68923 14.3017 2.39752C14.215 2.33281 14.1231 2.27525 14.027 2.22541C13.5939 2.00071 13.0741 2.00071 12.0345 2.00071C10.9688 2.00071 10.436 2.00071 9.99568 2.23483C9.8981 2.28672 9.80498 2.34661 9.71729 2.41388C9.32164 2.71741 9.10063 3.20226 8.65861 4.17197L8.05292 5.50071" stroke="white" stroke-width="1.58333" stroke-linecap="round"/>
<path d="M9.5 16.5V10.5" stroke="white" stroke-width="1.58333" stroke-linecap="round"/>
<path d="M14.5 16.5V10.5" stroke="white" stroke-width="1.58333" stroke-linecap="round"/>
</svg>
