<svg width="40" height="34" viewBox="0 0 40 34" fill="none" xmlns="http://www.w3.org/2000/svg">
<g clip-path="url(#clip0_471_2937)">
<path d="M32.7481 28.2711C32.8093 28.2624 32.8681 6.93958 32.9309 6.93322C33.9066 6.83692 34.8821 7.11718 35.6554 7.71594C36.4286 8.31469 36.9404 9.18604 37.0845 10.1494L39.4545 26.0038C39.5282 26.4963 39.5034 26.9985 39.3816 27.4815C39.2599 27.9645 39.0436 28.419 38.745 28.819C38.4464 29.219 38.0715 29.5566 37.6416 29.8126C37.2116 30.0686 36.7352 30.238 36.2393 30.3111L17.3389 33.0989C16.3417 33.2459 15.3265 32.9952 14.5147 32.4013C13.703 31.8075 13.1606 30.9188 13.006 29.9293C13.006 29.9213 13.0036 29.516 13.0024 29.5077" fill="white" fill-opacity="0.25"/>
<path d="M29.4199 29.5837H10.3122C9.14118 29.5824 8.01844 29.1197 7.19034 28.2972C6.36223 27.4746 5.8964 26.3594 5.89502 25.1961V15.1613C5.89502 15.0032 5.95823 14.8516 6.07076 14.7399C6.18328 14.6281 6.33589 14.5653 6.49502 14.5653C6.65415 14.5653 6.80677 14.6281 6.91929 14.7399C7.03181 14.8516 7.09502 15.0032 7.09502 15.1613V25.1961C7.09608 26.0433 7.43539 26.8556 8.03852 27.4546C8.64164 28.0537 9.45934 28.3906 10.3122 28.3916H29.4199C30.2727 28.3905 31.0903 28.0535 31.6934 27.4545C32.2964 26.8554 32.6357 26.0433 32.6367 25.1961V9.16644C32.6358 8.31919 32.2966 7.50691 31.6935 6.90777C31.0905 6.30864 30.2728 5.97158 29.4199 5.97053H15.7239C15.5647 5.97053 15.4121 5.90773 15.2996 5.79595C15.1871 5.68417 15.1239 5.53257 15.1239 5.3745C15.1239 5.21642 15.1871 5.06482 15.2996 4.95304C15.4121 4.84126 15.5647 4.77847 15.7239 4.77847H29.4199C30.591 4.77983 31.7137 5.24259 32.5417 6.06521C33.3697 6.88783 33.8355 8.00313 33.8367 9.16644V25.1961C33.8355 26.3593 33.3697 27.4746 32.5417 28.2972C31.7136 29.1197 30.5909 29.5824 29.4199 29.5837Z" fill="white"/>
<path d="M32.4954 25.4511C32.4166 25.4511 32.3386 25.4357 32.2659 25.4057C32.1931 25.3757 32.127 25.3317 32.0714 25.2762L27.5602 20.7953C27.3214 20.569 27.004 20.4428 26.674 20.4428C26.344 20.4428 26.0266 20.569 25.7878 20.7953L22.9414 23.6224C22.8289 23.7342 22.6763 23.797 22.5172 23.797C22.3581 23.797 22.2055 23.7342 22.093 23.6224L15.0902 16.6656C14.8548 16.4325 14.5361 16.3017 14.2038 16.3017C13.8714 16.3017 13.5527 16.4325 13.3173 16.6656L7.66372 22.2822C7.55121 22.3939 7.39862 22.4567 7.23952 22.4567C7.08042 22.4567 6.92784 22.3939 6.81532 22.2822C6.70284 22.1704 6.63965 22.0188 6.63965 21.8608C6.63965 21.7027 6.70284 21.5512 6.81532 21.4394L12.4689 15.8228C12.9294 15.3665 13.5533 15.1102 14.2038 15.1102C14.8542 15.1102 15.4781 15.3665 15.9386 15.8228L22.517 22.3581L24.9394 19.9525C25.1665 19.7252 25.4367 19.5449 25.7344 19.4221C26.0321 19.2994 26.3514 19.2365 26.6738 19.2373C26.9962 19.2365 27.3156 19.2993 27.6134 19.4221C27.9112 19.5449 28.1815 19.7252 28.4086 19.9525L32.9198 24.4319C33.0323 24.5436 33.0955 24.6952 33.0955 24.8533C33.0955 25.0113 33.0323 25.1629 32.9198 25.2746C32.8642 25.3303 32.7982 25.3746 32.7253 25.4049C32.6525 25.4351 32.5744 25.4508 32.4954 25.4511Z" fill="white"/>
<path d="M26.5522 14.8256C25.8021 14.825 25.0828 14.5289 24.5522 14.0022C24.0216 13.4754 23.7231 12.761 23.7222 12.0159C23.7231 11.2709 24.0215 10.5568 24.5518 10.03C25.0821 9.50332 25.8011 9.20704 26.551 9.2062C27.3009 9.20704 28.0198 9.50333 28.55 10.0301C29.0803 10.5568 29.3785 11.271 29.3794 12.0159C29.3785 12.7606 29.0804 13.4746 28.5505 14.0013C28.0205 14.528 27.3019 14.8244 26.5522 14.8256ZM26.5522 10.3983C26.1203 10.3984 25.706 10.5687 25.4004 10.8719C25.0948 11.1751 24.9228 11.5864 24.9222 12.0155C24.9226 12.4445 25.0943 12.8558 25.3997 13.1591C25.7051 13.4625 26.1191 13.6331 26.551 13.6335C26.9827 13.6331 27.3967 13.4625 27.702 13.1593C28.0073 12.856 28.179 12.4448 28.1794 12.0159C28.179 11.5872 28.0074 11.1762 27.7024 10.8729C27.3974 10.5697 26.9837 10.399 26.5522 10.3983Z" fill="white"/>
<path d="M7.00289 1.26007C4.01354 1.26007 1.5874 3.67013 1.5874 6.63967C1.5874 9.60921 4.01354 12.0193 7.00289 12.0193C9.99223 12.0193 12.4184 9.60921 12.4184 6.63967C12.4184 3.67013 9.99223 1.26007 7.00289 1.26007ZM8.89831 7.04314H7.40905V8.52253C7.40905 8.74309 7.22492 8.926 7.00289 8.926C6.78085 8.926 6.59672 8.74309 6.59672 8.52253V7.04314H5.10747C4.88543 7.04314 4.70131 6.86024 4.70131 6.63967C4.70131 6.41911 4.88543 6.2362 5.10747 6.2362H6.59672V4.75681C6.59672 4.53625 6.78085 4.35334 7.00289 4.35334C7.22492 4.35334 7.40905 4.53625 7.40905 4.75681V6.2362H8.89831C9.12034 6.2362 9.30447 6.41911 9.30447 6.63967C9.30447 6.86024 9.12034 7.04314 8.89831 7.04314Z" fill="white"/>
</g>
<defs>
<clipPath id="clip0_471_2937">
<rect width="40" height="33.1429" fill="white"/>
</clipPath>
</defs>
</svg>
