<svg width="38" height="38" viewBox="0 0 38 38" fill="none" xmlns="http://www.w3.org/2000/svg">
<path d="M37.9987 19.0007C37.9987 28.5969 30.8854 36.5302 21.6447 37.8176C20.7806 37.9374 19.8966 38 18.9993 38C17.9636 38 16.9464 37.9175 15.9559 37.7577C6.90958 36.3012 0 28.4571 0 19.0007C0 8.50716 8.50716 0 19.0007 0C29.4942 0 38.0013 8.50716 38.0013 19.0007H37.9987Z" fill="#1877F7"/>
<path d="M21.6444 15.2567V19.3958H26.7646L25.9539 24.9714H21.6444V37.8173C20.7803 37.9372 19.8963 37.9997 18.999 37.9997C17.9632 37.9997 16.9461 37.9172 15.9556 37.7574V24.9714H11.2334V19.3958H15.9556V14.3314C15.9556 11.1895 18.5024 8.64137 21.6457 8.64137V8.64403C21.655 8.64403 21.663 8.64137 21.6723 8.64137H26.766V13.4634H23.4377C22.4485 13.4634 21.6457 14.2662 21.6457 15.2554L21.6444 15.2567Z" fill="white"/>
</svg>
