<svg width="18" height="18" viewBox="0 0 18 18" fill="none" xmlns="http://www.w3.org/2000/svg">
<path d="M13.4652 7.23744L12.4709 7.63909C12.344 7.69073 12.2083 7.71726 12.0713 7.7172C11.9253 7.71663 11.7809 7.68614 11.6471 7.62761C11.5134 7.56907 11.393 7.48373 11.2935 7.37686C11.194 7.26998 11.1175 7.14385 11.0686 7.00623C11.0198 6.86862 10.9996 6.72246 11.0095 6.57676L11.0846 5.50739L10.3947 4.68696C10.2467 4.50781 10.1622 4.28472 10.1543 4.05249H3.61658C2.4323 4.05249 1.46472 5.02007 1.46472 6.20939V12.2064C1.46472 13.3957 2.4323 14.3582 3.61658 14.3582H5.25441L5.21913 15.3611C5.21502 15.5033 5.23949 15.6448 5.29108 15.7774C5.34268 15.9099 5.42036 16.0308 5.51952 16.1327C5.61868 16.2347 5.7373 16.3158 5.86835 16.371C5.9994 16.4263 6.14022 16.4548 6.28246 16.4546C6.5042 16.4546 6.72594 16.3791 6.9124 16.2379L9.41198 14.3582H12.2946C13.4788 14.3582 14.4464 13.3957 14.4464 12.2064V7.63405L13.4652 7.23744ZM8.20603 10.8054H5.56081C5.44052 10.8054 5.32516 10.7576 5.2401 10.6725C5.15504 10.5875 5.10726 10.4721 5.10726 10.3518C5.10726 10.2315 5.15504 10.1162 5.2401 10.0311C5.32516 9.94607 5.44052 9.89828 5.56081 9.89828H8.20603C8.32632 9.89828 8.44168 9.94607 8.52674 10.0311C8.6118 10.1162 8.65958 10.2315 8.65958 10.3518C8.65958 10.4721 8.6118 10.5875 8.52674 10.6725C8.44168 10.7576 8.32632 10.8054 8.20603 10.8054ZM10.5509 8.51444H5.56182C5.44153 8.51444 5.32616 8.46666 5.24111 8.3816C5.15605 8.29654 5.10826 8.18118 5.10826 8.06089C5.10826 7.9406 5.15605 7.82524 5.24111 7.74018C5.32616 7.65512 5.44153 7.60734 5.56182 7.60734H10.5509C10.6712 7.60734 10.7866 7.65512 10.8716 7.74018C10.9567 7.82524 11.0045 7.9406 11.0045 8.06089C11.0045 8.18118 10.9567 8.29654 10.8716 8.3816C10.7866 8.46666 10.6712 8.51444 10.5509 8.51444Z" fill="white" fill-opacity="0.5"/>
<path d="M13.7274 2.20002L14.4576 3.36868L15.7946 3.70179C16.0163 3.75722 16.1035 4.02532 15.9569 4.2007L15.0709 5.25596L15.1672 6.63023C15.1708 6.68255 15.1611 6.73493 15.1389 6.78246C15.1167 6.82999 15.0828 6.8711 15.0404 6.90194C14.998 6.93277 14.9484 6.95232 14.8964 6.95874C14.8443 6.96516 14.7915 6.95824 14.7429 6.93864L13.4654 6.4221L12.1878 6.93864C12.1392 6.95824 12.0864 6.96516 12.0343 6.95874C11.9823 6.95232 11.9327 6.93277 11.8903 6.90194C11.8479 6.8711 11.814 6.82999 11.7918 6.78246C11.7696 6.73493 11.7599 6.68255 11.7635 6.63023L11.8598 5.25596L10.9738 4.2007C10.9402 4.16048 10.9172 4.11237 10.9073 4.06087C10.8973 4.00937 10.9006 3.95618 10.9168 3.9063C10.933 3.85641 10.9616 3.81147 11 3.7757C11.0384 3.73992 11.0852 3.71449 11.1361 3.70179L12.4731 3.36868L13.2033 2.20002C13.2311 2.15555 13.2697 2.11888 13.3155 2.09345C13.3614 2.06803 13.4129 2.05469 13.4654 2.05469C13.5178 2.05469 13.5693 2.06803 13.6152 2.09345C13.661 2.11888 13.6996 2.15555 13.7274 2.20002Z" fill="white" fill-opacity="0.5"/>
</svg>
