<svg width="21" height="21" viewBox="0 0 21 21" fill="none" xmlns="http://www.w3.org/2000/svg">
<path d="M20.1666 10.5174C20.1666 9.67137 20.098 9.05402 19.9494 8.41382H10.2891V12.2322H15.9595C15.8452 13.1811 15.2278 14.6101 13.8559 15.5704L13.8367 15.6982L16.8911 18.0645L17.1027 18.0856C19.0462 16.2907 20.1666 13.6498 20.1666 10.5174Z" fill="#4285F4"/>
<path d="M10.2893 20.5781C13.0673 20.5781 15.3995 19.6635 17.103 18.0859L13.8562 15.5707C12.9873 16.1766 11.8212 16.5996 10.2893 16.5996C7.56841 16.5996 5.25909 14.8048 4.43588 12.324L4.31522 12.3342L1.13919 14.7922L1.09766 14.9076C2.78963 18.2687 6.26507 20.5781 10.2893 20.5781Z" fill="#34A853"/>
<path d="M4.43571 12.3241C4.2185 11.6839 4.09279 10.9979 4.09279 10.2891C4.09279 9.58024 4.2185 8.89433 4.42428 8.25412L4.41853 8.11778L1.2027 5.62033L1.09748 5.67038C0.400137 7.06514 0 8.6314 0 10.2891C0 11.9468 0.400137 13.513 1.09748 14.9077L4.43571 12.3241Z" fill="#FBBC05"/>
<path d="M10.2893 3.97843C12.2213 3.97843 13.5246 4.81299 14.2677 5.51041L17.1715 2.67517C15.3881 1.01748 13.0673 0 10.2893 0C6.26507 0 2.78963 2.30932 1.09766 5.6704L4.42446 8.25415C5.25909 5.77333 7.56841 3.97843 10.2893 3.97843Z" fill="#EB4335"/>
</svg>
