<svg width="16" height="16" viewBox="0 0 16 16" fill="none" xmlns="http://www.w3.org/2000/svg">
<g clip-path="url(#clip0_386_2202)">
<path d="M10.0024 15.1667H6.00236C2.38236 15.1667 0.835693 13.62 0.835693 10V6.00004C0.835693 2.38004 2.38236 0.833374 6.00236 0.833374H10.0024C13.6224 0.833374 15.169 2.38004 15.169 6.00004V10C15.169 13.62 13.6224 15.1667 10.0024 15.1667ZM6.00236 1.83337C2.92903 1.83337 1.83569 2.92671 1.83569 6.00004V10C1.83569 13.0734 2.92903 14.1667 6.00236 14.1667H10.0024C13.0757 14.1667 14.169 13.0734 14.169 10V6.00004C14.169 2.92671 13.0757 1.83337 10.0024 1.83337H6.00236Z" fill="white"/>
<path d="M6.00523 7.16665C4.99189 7.16665 4.17189 6.34665 4.17189 5.33332C4.17189 4.31998 4.99189 3.49998 6.00523 3.49998C7.01856 3.49998 7.83856 4.31998 7.83856 5.33332C7.83856 6.34665 7.01856 7.16665 6.00523 7.16665ZM6.00523 4.49998C5.78421 4.49998 5.57225 4.58778 5.41597 4.74406C5.25969 4.90034 5.17189 5.1123 5.17189 5.33332C5.17189 5.55433 5.25969 5.76629 5.41597 5.92257C5.57225 6.07885 5.78421 6.16665 6.00523 6.16665C6.22624 6.16665 6.4382 6.07885 6.59448 5.92257C6.75076 5.76629 6.83856 5.55433 6.83856 5.33332C6.83856 5.1123 6.75076 4.90034 6.59448 4.74406C6.4382 4.58778 6.22624 4.49998 6.00523 4.49998ZM1.78523 13.1333C1.67808 13.1335 1.57374 13.099 1.48775 13.0351C1.40176 12.9712 1.33871 12.8812 1.30799 12.7786C1.27727 12.6759 1.28052 12.5661 1.31726 12.4654C1.354 12.3648 1.42227 12.2787 1.51189 12.22L4.79856 10.0133C5.51856 9.52665 6.51189 9.58665 7.16523 10.14L7.38523 10.3333C7.71856 10.62 8.28523 10.62 8.61189 10.3333L11.3852 7.95332C12.0919 7.34665 13.2052 7.34665 13.9186 7.95332L15.0052 8.88665C15.2119 9.06665 15.2386 9.37999 15.0586 9.59332C14.8786 9.79998 14.5652 9.82665 14.3519 9.64665L13.2652 8.71332C12.9319 8.42665 12.3652 8.42665 12.0319 8.71332L9.25856 11.0933C8.55189 11.7 7.43856 11.7 6.72523 11.0933L6.50523 10.9C6.19856 10.64 5.69189 10.6133 5.35189 10.8467L2.06523 13.0533C1.97856 13.1067 1.87856 13.1333 1.78523 13.1333Z" fill="white"/>
</g>
<defs>
<clipPath id="clip0_386_2202">
<rect width="16" height="16" fill="white"/>
</clipPath>
</defs>
</svg>
