<svg width="22" height="22" viewBox="0 0 22 22" fill="none" xmlns="http://www.w3.org/2000/svg">
<path d="M20.1667 9.62508L11.809 2.58698C11.5826 2.39631 11.296 2.29175 11 2.29175C10.704 2.29175 10.4175 2.39631 10.1911 2.58698L1.83337 9.62508" stroke="#9A9A9A" stroke-width="1.375" stroke-linecap="round" stroke-linejoin="round"/>
<path d="M18.7917 8.70825V14.6666C18.7917 16.8167 18.7917 17.8918 18.2235 18.6324C18.0772 18.823 17.9065 18.9937 17.7158 19.14C16.9752 19.7083 15.9002 19.7083 13.75 19.7083V15.5833C13.75 14.2869 13.75 13.6387 13.3473 13.2359C12.9446 12.8333 12.2964 12.8333 11 12.8333C9.70369 12.8333 9.0555 12.8333 8.65277 13.2359C8.25004 13.6387 8.25004 14.2869 8.25004 15.5833V19.7083C6.09993 19.7083 5.02488 19.7083 4.28428 19.14C4.09362 18.9937 3.92295 18.823 3.77665 18.6324C3.20837 17.8918 3.20837 16.8167 3.20837 14.6666V8.70825" stroke="#9A9A9A" stroke-width="1.375" stroke-linecap="round" stroke-linejoin="round"/>
</svg>
