<svg width="20" height="19" viewBox="0 0 20 19" fill="none" xmlns="http://www.w3.org/2000/svg">
<path d="M9.8542 0C10.3546 0 10.8393 0.176632 11.2221 0.498621L19.3896 7.36915L19.4568 7.43181C19.7726 7.75748 19.7966 8.27613 19.498 8.63043C19.2136 8.96739 18.7336 9.04109 18.3647 8.82742V16.107C18.3647 17.5896 17.1615 18.7916 15.6773 18.7917H12.6042V12.1458C12.6042 11.6396 12.1937 11.2292 11.6875 11.2292H8.02087C7.51459 11.2292 7.10418 11.6396 7.10418 12.1458V18.7917H4.03102C2.54683 18.7916 1.34369 17.5896 1.34369 16.107V8.82742C0.974755 9.04109 0.494706 8.96739 0.210383 8.63043C-0.108122 8.25258 -0.0594098 7.68754 0.318706 7.36915L8.48727 0.498621L8.63494 0.384936C8.99089 0.135437 9.41631 9.16667e-06 9.8542 0Z" fill="white"/>
</svg>
