<svg width="18" height="18" viewBox="0 0 18 18" fill="none" xmlns="http://www.w3.org/2000/svg">
<path d="M5.5002 7.25C6.08009 7.25 6.5502 6.7799 6.5502 6.2C6.5502 5.6201 6.08009 5.15 5.5002 5.15C4.9203 5.15 4.4502 5.6201 4.4502 6.2C4.4502 6.7799 4.9203 7.25 5.5002 7.25Z" stroke="white" stroke-width="1.05" stroke-linecap="round" stroke-linejoin="round"/>
<path d="M15.2984 8.3C15.3 8.62907 15.3 8.97851 15.3 9.35C15.3 12.4848 15.3 14.0523 14.3262 15.0262C13.3523 16 11.7848 16 8.65 16C5.51516 16 3.94774 16 2.97387 15.0262C2 14.0523 2 12.4848 2 9.35C2 6.21516 2 4.64774 2.97387 3.67387C3.94774 2.7 5.51516 2.7 8.65 2.7C9.02149 2.7 9.37093 2.7 9.7 2.70162" stroke="white" stroke-width="1.05" stroke-linecap="round" stroke-linejoin="round"/>
<path d="M13.5501 2L13.7306 2.48792C13.9674 3.12771 14.0857 3.44761 14.3191 3.68097C14.5525 3.91434 14.8724 4.03271 15.5122 4.26946L16.0001 4.45L15.5122 4.63054C14.8724 4.86729 14.5525 4.98567 14.3191 5.21903C14.0857 5.45239 13.9674 5.77229 13.7306 6.41208L13.5501 6.9L13.3696 6.41208C13.1328 5.77229 13.0145 5.45239 12.7811 5.21903C12.5477 4.98567 12.2278 4.86729 11.588 4.63054L11.1001 4.45L11.588 4.26946C12.2278 4.03271 12.5477 3.91434 12.7811 3.68097C13.0145 3.44761 13.1328 3.12771 13.3696 2.48792L13.5501 2Z" stroke="white" stroke-width="1.05" stroke-linecap="round" stroke-linejoin="round"/>
<path d="M3.75 15.6499C6.81072 11.9925 10.2419 7.16881 15.2983 10.4297" stroke="white" stroke-width="1.05" stroke-linecap="round" stroke-linejoin="round"/>
</svg>
