<svg width="38" height="38" viewBox="0 0 38 38" fill="none" xmlns="http://www.w3.org/2000/svg">
<path d="M19.0433 0H18.9567C8.48722 0 0 8.48722 0 18.9567V19.0433C0 29.5128 8.48722 38 18.9567 38H19.0433C29.5128 38 38 29.5128 38 19.0433V18.9567C38 8.48722 29.5128 0 19.0433 0Z" fill="url(#paint0_linear_486_2302)"/>
<path d="M24.8798 7.73104H13.1216C9.87315 7.73104 7.23047 10.3737 7.23047 13.6222V24.3793C7.23047 27.6277 9.87315 30.2704 13.1216 30.2704H24.8798C28.1283 30.2704 30.771 27.6277 30.771 24.3793V13.6222C30.771 10.3737 28.1283 7.73104 24.8798 7.73104ZM9.30867 13.6222C9.30867 11.52 11.0194 9.80925 13.1216 9.80925H24.8798C26.982 9.80925 28.6928 11.52 28.6928 13.6222V24.3793C28.6928 26.4814 26.982 28.1922 24.8798 28.1922H13.1216C11.0194 28.1922 9.30867 26.4814 9.30867 24.3793V13.6222Z" fill="white"/>
<path d="M19.0012 24.4789C22.022 24.4789 24.481 22.0212 24.481 18.9991C24.481 15.977 22.0233 13.5194 19.0012 13.5194C15.9791 13.5194 13.5215 15.977 13.5215 18.9991C13.5215 22.0212 15.9791 24.4789 19.0012 24.4789ZM19.0012 15.5989C20.8771 15.5989 22.4028 17.1246 22.4028 19.0005C22.4028 20.8763 20.8771 22.402 19.0012 22.402C17.1254 22.402 15.5997 20.8763 15.5997 19.0005C15.5997 17.1246 17.1254 15.5989 19.0012 15.5989Z" fill="white"/>
<path d="M24.9862 14.4049C25.7996 14.4049 26.4626 13.7432 26.4626 12.9284C26.4626 12.1136 25.801 11.452 24.9862 11.452C24.1714 11.452 23.5098 12.1136 23.5098 12.9284C23.5098 13.7432 24.1714 14.4049 24.9862 14.4049Z" fill="white"/>
<defs>
<linearGradient id="paint0_linear_486_2302" x1="5.55162" y1="32.4484" x2="32.4484" y2="5.55296" gradientUnits="userSpaceOnUse">
<stop stop-color="#FAAD4F"/>
<stop offset="0.35" stop-color="#DD2A7B"/>
<stop offset="0.62" stop-color="#9537B0"/>
<stop offset="1" stop-color="#515BD4"/>
</linearGradient>
</defs>
</svg>
