<svg width="18" height="18" viewBox="0 0 18 18" fill="none" xmlns="http://www.w3.org/2000/svg">
<path d="M3.75003 16.4024C3.19503 16.4024 2.64753 16.1924 2.22753 15.7724C1.82253 15.3674 1.59753 14.8274 1.59753 14.2499C1.59753 13.6724 1.82253 13.1324 2.22753 12.7274L11.9775 2.97741C12.8175 2.13741 14.1825 2.13741 15.0225 2.97741C15.4275 3.38241 15.6525 3.92241 15.6525 4.49991C15.6525 5.07741 15.4275 5.61741 15.0225 6.02241L5.27253 15.7724C4.85253 16.1924 4.30503 16.4024 3.75003 16.4024ZM13.5 3.47241C13.2375 3.47241 12.975 3.56991 12.7725 3.77241L3.02253 13.5224C2.82753 13.7174 2.72253 13.9724 2.72253 14.2499C2.72253 14.5274 2.82753 14.7824 3.02253 14.9774C3.42003 15.3749 4.08003 15.3749 4.47753 14.9774L14.2275 5.22741C14.4225 5.03241 14.5275 4.77741 14.5275 4.49991C14.5275 4.22241 14.4225 3.96741 14.2275 3.77241C14.025 3.56991 13.7625 3.47241 13.5 3.47241Z" fill="white" fill-opacity="0.5"/>
<path d="M13.5075 7.30501C13.365 7.30501 13.2225 7.25251 13.11 7.14001L10.86 4.89001C10.6425 4.67251 10.6425 4.31251 10.86 4.09501C11.0775 3.87751 11.4375 3.87751 11.655 4.09501L13.905 6.34501C14.1225 6.56251 14.1225 6.92251 13.905 7.14001C13.7925 7.25251 13.65 7.30501 13.5075 7.30501Z" fill="white" fill-opacity="0.5"/>
<path d="M7.50004 4.12504C7.46254 4.12504 7.43254 4.11754 7.39504 4.11004L6.37504 3.81004L5.35504 4.11004C5.22004 4.14754 5.07754 4.11004 4.98754 4.01254C4.89004 3.91504 4.85254 3.78004 4.89004 3.64504L5.19004 2.62504L4.89004 1.60504C4.85254 1.47004 4.89004 1.32754 4.98754 1.23754C5.08504 1.14004 5.22754 1.10254 5.35504 1.14004L6.37504 1.44004L7.39504 1.14004C7.53004 1.10254 7.66504 1.14004 7.76254 1.23754C7.86004 1.33504 7.89754 1.47754 7.86004 1.60504L7.56004 2.62504L7.86004 3.64504C7.89754 3.78004 7.86004 3.92254 7.76254 4.01254C7.69504 4.08754 7.59754 4.12504 7.50004 4.12504ZM6.37504 3.04504C6.41254 3.04504 6.44254 3.05254 6.48004 3.06004L6.94504 3.19504L6.81004 2.73004C6.78754 2.66254 6.78754 2.58754 6.81004 2.52004L6.94504 2.05504L6.48004 2.19004C6.41254 2.21254 6.33754 2.21254 6.27004 2.19004L5.80504 2.05504L5.94004 2.52004C5.96254 2.58754 5.96254 2.66254 5.94004 2.73004L5.80504 3.19504L6.27004 3.06004C6.30754 3.05254 6.33754 3.04504 6.37504 3.04504Z" fill="white" fill-opacity="0.5"/>
<path d="M4.50004 8.62504C4.46254 8.62504 4.43254 8.61754 4.39504 8.61004L3.37504 8.31004L2.35504 8.61004C2.22004 8.64754 2.08504 8.61004 1.98754 8.51254C1.89004 8.41504 1.85254 8.27254 1.89004 8.14504L2.19004 7.12504L1.89004 6.10504C1.85254 5.97004 1.89004 5.82754 1.98754 5.73754C2.08504 5.64754 2.22754 5.60254 2.35504 5.64004L3.37504 5.94004L4.39504 5.64004C4.52254 5.60254 4.66504 5.64004 4.76254 5.73754C4.86004 5.83504 4.89754 5.97754 4.86004 6.10504L4.56004 7.12504L4.86004 8.14504C4.89754 8.28004 4.86004 8.42254 4.76254 8.51254C4.69504 8.58754 4.59754 8.62504 4.50004 8.62504ZM3.37504 7.54504C3.41254 7.54504 3.44254 7.55254 3.48004 7.56004L3.94504 7.69504L3.81004 7.23004C3.78754 7.16254 3.78754 7.08754 3.81004 7.02004L3.94504 6.55504L3.48004 6.69004C3.41254 6.71254 3.33754 6.71254 3.27004 6.69004L2.80504 6.55504L2.94004 7.02004C2.96254 7.08754 2.96254 7.16254 2.94004 7.23004L2.80504 7.69504L3.27004 7.56004C3.30754 7.55254 3.33754 7.54504 3.37504 7.54504Z" fill="white" fill-opacity="0.5"/>
<path d="M15.75 12.375C15.7125 12.375 15.6825 12.3675 15.645 12.36L14.625 12.06L13.605 12.36C13.47 12.3975 13.335 12.36 13.2375 12.2625C13.14 12.165 13.1025 12.0225 13.14 11.895L13.44 10.875L13.14 9.85504C13.1025 9.72004 13.14 9.57754 13.2375 9.48754C13.335 9.39754 13.4775 9.35254 13.605 9.39004L14.625 9.69004L15.645 9.39004C15.7725 9.35254 15.915 9.39004 16.0125 9.48754C16.11 9.58504 16.1475 9.72754 16.11 9.85504L15.81 10.875L16.11 11.895C16.1475 12.03 16.11 12.1725 16.0125 12.2625C15.945 12.3375 15.8475 12.375 15.75 12.375ZM14.625 11.295C14.6625 11.295 14.6925 11.3025 14.73 11.31L15.195 11.445L15.06 10.98C15.0375 10.9125 15.0375 10.8375 15.06 10.77L15.195 10.305L14.73 10.44C14.6625 10.4625 14.5875 10.4625 14.52 10.44L14.055 10.305L14.19 10.77C14.2125 10.8375 14.2125 10.9125 14.19 10.98L14.055 11.445L14.52 11.31C14.5575 11.3025 14.5875 11.295 14.625 11.295Z" fill="white" fill-opacity="0.5"/>
</svg>
