<svg width="18" height="18" viewBox="0 0 18 18" fill="none" xmlns="http://www.w3.org/2000/svg">
<path d="M9 8.25C9.41422 8.25 9.75 8.58585 9.75 9C9.75 9.41422 9.41422 9.75 9 9.75C8.58578 9.75 8.25 9.41422 8.25 9C8.25 8.58585 8.58578 8.25 9 8.25Z" stroke="white" stroke-width="1.125" stroke-linecap="round" stroke-linejoin="round"/>
<path d="M9 3.75003C9.41422 3.75003 9.75 4.08582 9.75 4.50003C9.75 4.91424 9.41422 5.25003 9 5.25003C8.58578 5.25003 8.25 4.91424 8.25 4.50003C8.25 4.08582 8.58578 3.75003 9 3.75003Z" stroke="white" stroke-width="1.125" stroke-linecap="round" stroke-linejoin="round"/>
<path d="M9 12.75C9.41422 12.75 9.75 13.0858 9.75 13.5C9.75 13.9142 9.41422 14.25 9 14.25C8.58578 14.25 8.25 13.9142 8.25 13.5C8.25 13.0858 8.58578 12.75 9 12.75Z" stroke="white" stroke-width="1.125" stroke-linecap="round" stroke-linejoin="round"/>
</svg>
