<svg width="18" height="18" viewBox="0 0 18 18" fill="none" xmlns="http://www.w3.org/2000/svg">
<path fill-rule="evenodd" clip-rule="evenodd" d="M9.387 1.62743C9.28251 1.52837 9.144 1.47314 9 1.47314C8.85601 1.47314 8.7175 1.52837 8.61301 1.62743C7.02096 3.13934 4.9006 3.96843 2.70526 3.93743C2.58566 3.93588 2.46867 3.97249 2.3713 4.04195C2.27392 4.1114 2.20122 4.21009 2.16375 4.32368C1.84723 5.2883 1.68647 6.29721 1.6875 7.31243C1.6875 11.7689 4.7355 15.5122 8.85975 16.5734C8.95175 16.5971 9.04826 16.5971 9.14025 16.5734C13.2645 15.5122 16.3125 11.7689 16.3125 7.31243C16.3125 6.26993 16.1453 5.26493 15.8363 4.32368C15.7989 4.20995 15.7263 4.1111 15.6289 4.0415C15.5315 3.9719 15.4144 3.93518 15.2948 3.93668L15.1875 3.93743C12.9405 3.93743 10.8998 3.05993 9.387 1.62743ZM11.7075 7.63943C11.7525 7.57947 11.7851 7.51112 11.8033 7.43839C11.8215 7.36567 11.825 7.29004 11.8135 7.21595C11.8021 7.14186 11.7759 7.0708 11.7366 7.00695C11.6974 6.94311 11.6457 6.88776 11.5847 6.84417C11.5237 6.80058 11.4546 6.76961 11.3815 6.7531C11.3084 6.73659 11.2327 6.73487 11.1589 6.74803C11.0851 6.76119 11.0146 6.78897 10.9517 6.82974C10.8888 6.87051 10.8347 6.92344 10.7925 6.98543L8.36551 10.3829L7.1475 9.16493C7.04087 9.06557 6.89984 9.01148 6.75411 9.01405C6.60839 9.01662 6.46935 9.07566 6.36629 9.17872C6.26323 9.28178 6.20419 9.42081 6.20162 9.56654C6.19905 9.71227 6.25315 9.8533 6.35251 9.95993L8.04001 11.6474C8.09775 11.7051 8.16736 11.7496 8.244 11.7777C8.32064 11.8058 8.40247 11.8168 8.48383 11.8101C8.56518 11.8034 8.6441 11.7791 8.7151 11.7388C8.78611 11.6985 8.84749 11.6433 8.895 11.5769L11.7075 7.63943Z" fill="white" fill-opacity="0.5"/>
</svg>
