<svg width="22" height="22" viewBox="0 0 22 22" fill="none" xmlns="http://www.w3.org/2000/svg">
<g clip-path="url(#clip0_1386_1904)">
<path d="M11.11 11.7151C11.0458 11.7059 10.9633 11.7059 10.89 11.7151C9.27662 11.6601 7.99329 10.3401 7.99329 8.7176C7.99329 7.05844 9.33162 5.71094 11 5.71094C12.6591 5.71094 14.0066 7.05844 14.0066 8.7176C13.9975 10.3401 12.7233 11.6601 11.11 11.7151Z" stroke="#9A9A9A" stroke-width="1.2" stroke-linecap="round" stroke-linejoin="round"/>
<path d="M17.1783 17.7649C15.5467 19.2591 13.3833 20.1666 11 20.1666C8.61666 20.1666 6.45332 19.2591 4.82166 17.7649C4.91332 16.9033 5.46332 16.0599 6.44416 15.3999C8.95582 13.7316 13.0625 13.7316 15.5558 15.3999C16.5367 16.0599 17.0867 16.9033 17.1783 17.7649Z" stroke="#9A9A9A" stroke-width="1.2" stroke-linecap="round" stroke-linejoin="round"/>
<path d="M11 20.1666C16.0627 20.1666 20.1667 16.0625 20.1667 10.9999C20.1667 5.93731 16.0627 1.83325 11 1.83325C5.93743 1.83325 1.83337 5.93731 1.83337 10.9999C1.83337 16.0625 5.93743 20.1666 11 20.1666Z" stroke="#9A9A9A" stroke-width="1.2" stroke-linecap="round" stroke-linejoin="round"/>
</g>
<defs>
<clipPath id="clip0_1386_1904">
<rect width="22" height="22" fill="white"/>
</clipPath>
</defs>
</svg>
