<svg width="16" height="16" viewBox="0 0 16 16" fill="none" xmlns="http://www.w3.org/2000/svg">
<path d="M12.4817 5.35992C12.5217 5.47992 12.6817 5.47992 12.7617 5.35992L13.3217 4.15992L13.4017 4.11992L14.6017 3.51992C14.6817 3.47992 14.6817 3.31992 14.6017 3.23992L13.4017 2.67992L13.3217 2.59992L12.7617 1.39992C12.7479 1.37491 12.7276 1.35407 12.703 1.33955C12.6784 1.32504 12.6503 1.31738 12.6217 1.31738C12.5932 1.31738 12.5651 1.32504 12.5405 1.33955C12.5159 1.35407 12.4956 1.37491 12.4817 1.39992L11.8817 2.59992L11.8017 2.67992L10.6017 3.23992C10.5217 3.31992 10.5217 3.47992 10.6017 3.51992L11.8017 4.11992C11.8417 4.11992 11.8817 4.11992 11.8817 4.19992L12.4817 5.39992V5.35992Z" stroke="white" stroke-width="0.8" stroke-linejoin="round"/>
<path d="M7.04129 13.7599C7.07716 13.8178 7.12722 13.8656 7.18672 13.8987C7.24622 13.9318 7.31319 13.9492 7.38129 13.9492C7.44939 13.9492 7.51636 13.9318 7.57586 13.8987C7.63536 13.8656 7.68541 13.8178 7.72129 13.7599L8.64129 11.5199C8.94533 10.7982 9.51956 10.224 10.2413 9.91992L12.5213 8.95992C12.5792 8.92405 12.6269 8.87399 12.6601 8.81449C12.6932 8.75499 12.7106 8.68802 12.7106 8.61992C12.7106 8.55182 12.6932 8.48485 12.6601 8.42535C12.6269 8.36585 12.5792 8.3158 12.5213 8.27992L10.2813 7.35992C9.55956 7.05588 8.98533 6.48165 8.68129 5.75992L7.72129 3.47992C7.68541 3.42204 7.63536 3.37427 7.57586 3.34115C7.51636 3.30802 7.44939 3.29064 7.38129 3.29064C7.31319 3.29064 7.24622 3.30802 7.18672 3.34115C7.12722 3.37427 7.07716 3.42204 7.04129 3.47992L6.12129 5.71992C5.80784 6.44923 5.21811 7.02457 4.48129 7.31992L2.24129 8.27992C2.1834 8.3158 2.13564 8.36585 2.10251 8.42535C2.06939 8.48485 2.052 8.55182 2.052 8.61992C2.052 8.68802 2.06939 8.75499 2.10251 8.81449C2.13564 8.87399 2.1834 8.92405 2.24129 8.95992L4.48129 9.87992C5.20129 10.1999 5.80129 10.7999 6.08129 11.5199L7.04129 13.7599Z" stroke="white" stroke-width="0.8" stroke-linejoin="round"/>
</svg>
