<svg width="18" height="18" viewBox="0 0 18 18" fill="none" xmlns="http://www.w3.org/2000/svg">
<path d="M15.9633 7.0692C15.9184 6.93071 15.8339 6.80845 15.7201 6.71761C15.6063 6.62676 15.4684 6.57133 15.3234 6.5582L11.282 6.1913L9.68488 2.452C9.56694 2.17727 9.29864 2 8.99999 2C8.70134 2 8.43293 2.17727 8.31576 2.452L6.7186 6.1913L2.6766 6.5582C2.38027 6.58554 2.12936 6.78625 2.03666 7.0692C1.9915 7.20782 1.98798 7.35664 2.02656 7.49723C2.06514 7.63782 2.14411 7.76401 2.25369 7.86016L5.30865 10.5389L4.40791 14.5062C4.34201 14.7979 4.45522 15.0995 4.69727 15.2745C4.82404 15.3667 4.97682 15.4163 5.1336 15.4162C5.26798 15.4162 5.39985 15.3798 5.51513 15.3107L8.99999 13.227L12.4842 15.3107C12.6092 15.3855 12.7534 15.4219 12.8989 15.4155C13.0444 15.409 13.1848 15.36 13.3027 15.2745C13.5448 15.0995 13.658 14.7979 13.5921 14.5062L12.6913 10.5389L15.7463 7.86019C15.8559 7.76404 15.9349 7.63786 15.9734 7.49726C16.012 7.35667 16.0085 7.20784 15.9633 7.06923V7.0692Z" fill="white" fill-opacity="0.5"/>
</svg>
