<svg width="38" height="38" viewBox="0 0 38 38" fill="none" xmlns="http://www.w3.org/2000/svg">
<path d="M18.9567 0H19.0433C29.5061 0 38 8.49385 38 18.9567V19.0433C38 29.5062 29.5061 38 19.0433 38H18.9567C8.49386 38 0 29.5062 0 19.0433V18.9567C0 8.49385 8.49386 0 18.9567 0Z" fill="#FF4500"/>
<path d="M30.7718 18.5243C30.4562 17.0931 29.1489 16.1652 27.8522 16.4514C27.4102 16.5486 27.0294 16.7763 26.7285 17.0878C24.9832 15.8204 22.6001 14.983 19.9388 14.8245L21.2129 9.52055L24.9925 10.4245C25.055 11.4576 25.9111 12.2764 26.9602 12.2764C28.0093 12.2764 28.9332 11.3924 28.9332 10.3034C28.9332 9.21434 28.0492 8.33034 26.9602 8.33034C26.1707 8.33034 25.4904 8.79498 25.1762 9.46597L21.0757 8.48478C20.7535 8.40756 20.43 8.60592 20.3515 8.9281L18.9416 14.7979C15.9727 14.8139 13.2941 15.6726 11.3717 17.0479C11.2772 16.96 11.176 16.8788 11.0655 16.8069C9.94585 16.092 8.39884 16.514 7.6107 17.7481C6.82255 18.9823 7.09015 20.5639 8.20979 21.2788C8.27636 21.3214 8.34426 21.3587 8.41349 21.3933C8.36822 21.6689 8.34426 21.9498 8.34426 22.2334C8.34426 26.3405 13.1251 29.6702 19.0228 29.6702C24.9206 29.6702 29.7014 26.3405 29.7014 22.2334C29.7014 21.9458 29.6761 21.6622 29.6295 21.384C30.5388 20.8554 31.034 19.7039 30.7744 18.5243H30.7718ZM13.5471 20.5106C13.5471 19.5747 14.3059 18.8159 15.2419 18.8159C16.1778 18.8159 16.9367 19.5747 16.9367 20.5106C16.9367 21.4466 16.1778 22.2054 15.2419 22.2054C14.3059 22.2054 13.5471 21.4466 13.5471 20.5106ZM22.9596 25.8612C22.439 26.3338 21.0012 27.4362 18.8964 27.4562C18.8777 27.4562 18.8577 27.4562 18.8391 27.4562C16.7063 27.4562 15.2498 26.3432 14.7186 25.8612C14.5482 25.7068 14.5363 25.4432 14.6907 25.2741C14.8451 25.1037 15.1087 25.0917 15.2778 25.2462C15.7398 25.6669 17.0165 26.6427 18.8884 26.6254C20.7083 26.6081 21.9504 25.6562 22.4004 25.2475C22.5708 25.0931 22.8331 25.105 22.9875 25.2754C23.142 25.4459 23.13 25.7081 22.9596 25.8626V25.8612ZM22.7545 22.2054C21.8186 22.2054 21.0598 21.4466 21.0598 20.5106C21.0598 19.5747 21.8186 18.8159 22.7545 18.8159C23.6905 18.8159 24.4493 19.5747 24.4493 20.5106C24.4493 21.4466 23.6905 22.2054 22.7545 22.2054Z" fill="white"/>
</svg>
