<svg width="16" height="16" viewBox="0 0 16 16" fill="none" xmlns="http://www.w3.org/2000/svg">
<path d="M3.33364 14.4999C3.15352 14.4993 2.97584 14.4583 2.81364 14.3799C2.61481 14.2865 2.4466 14.1385 2.32858 13.9533C2.21056 13.768 2.14758 13.553 2.14697 13.3333V1.99994C2.14784 1.84529 2.17927 1.69234 2.23946 1.54988C2.29965 1.40742 2.38741 1.27826 2.4977 1.16984C2.60798 1.06142 2.73861 0.975863 2.88207 0.918103C3.02553 0.860343 3.179 0.831514 3.33364 0.833274H12.667C12.9759 0.835024 13.2716 0.958502 13.49 1.17692C13.7084 1.39533 13.8319 1.69106 13.8336 1.99994V13.3333C13.8293 13.5444 13.7678 13.7504 13.6556 13.9293C13.5434 14.1082 13.3847 14.2532 13.1965 14.349C13.0083 14.4448 12.7977 14.4878 12.587 14.4733C12.3763 14.4587 12.1736 14.3873 12.0003 14.2666L8.13364 11.3666C8.10526 11.3439 8.06999 11.3315 8.03364 11.3315C7.99729 11.3315 7.96202 11.3439 7.93364 11.3666L4.03364 14.2666C3.83125 14.4172 3.58592 14.499 3.33364 14.4999ZM3.33364 1.83327C3.28944 1.83327 3.24704 1.85083 3.21579 1.88209C3.18453 1.91335 3.16697 1.95574 3.16697 1.99994V13.3333C3.16674 13.3641 3.17542 13.3944 3.19198 13.4204C3.20854 13.4464 3.23227 13.4671 3.26031 13.4799C3.28583 13.4974 3.31604 13.5068 3.34697 13.5068C3.37791 13.5068 3.40812 13.4974 3.43364 13.4799L7.33364 10.5666C7.53644 10.4172 7.78173 10.3366 8.03364 10.3366C8.28555 10.3366 8.53084 10.4172 8.73364 10.5666L12.6003 13.4666C12.6258 13.4841 12.656 13.4935 12.687 13.4935C12.7179 13.4935 12.7481 13.4841 12.7736 13.4666C12.8017 13.4538 12.8254 13.4331 12.842 13.4071C12.8585 13.381 12.8672 13.3508 12.867 13.3199V1.99994C12.8675 1.97494 12.8624 1.95015 12.852 1.9274C12.8416 1.90466 12.8262 1.88454 12.807 1.86853C12.7878 1.85252 12.7653 1.84104 12.741 1.83494C12.7168 1.82884 12.6915 1.82827 12.667 1.83327H3.33364Z" fill="white"/>
</svg>
