<svg width="24" height="24" viewBox="0 0 24 24" fill="none" xmlns="http://www.w3.org/2000/svg">
<path d="M7.77629 16.0385C10.5855 11.3784 18.139 5.98968 22.3109 3.03408C22.4245 2.95369 22.5597 2.90956 22.6988 2.9075C22.8379 2.90545 22.9744 2.94556 23.0902 3.02256C23.1796 3.0817 23.254 3.16086 23.3075 3.25376C23.361 3.34665 23.3922 3.45073 23.3984 3.55775C23.4047 3.66477 23.386 3.77178 23.3438 3.8703C23.3015 3.96882 23.2369 4.05615 23.155 4.12536C18.1503 8.3532 12.1942 13.4112 10.3957 18.983C10.3639 19.0825 10.3104 19.1737 10.2388 19.2498C10.1673 19.3259 10.0797 19.3851 9.98238 19.423C9.06989 19.7782 7.67765 20.4938 6.85397 20.9921C6.77239 21.0416 6.68143 21.0738 6.58681 21.0865C6.4922 21.0992 6.39597 21.0923 6.30419 21.066C6.2124 21.0397 6.12705 20.9948 6.05348 20.9339C5.97991 20.8731 5.91972 20.7977 5.87669 20.7125C4.60061 18.2052 2.54909 15.1118 0.847254 13.7105C0.773115 13.649 0.712782 13.5725 0.670193 13.4861C0.627604 13.3997 0.603718 13.3053 0.600094 13.2091C0.59647 13.1128 0.61319 13.0169 0.649162 12.9275C0.685134 12.8381 0.739549 12.7574 0.808854 12.6905C4.20965 9.43944 6.71765 13.8917 7.77605 16.0382L7.77629 16.0385Z" fill="white"/>
</svg>
