<svg width="38" height="38" viewBox="0 0 38 38" fill="none" xmlns="http://www.w3.org/2000/svg">
<path d="M19.0433 0H18.9567C8.4872 0 0 8.48722 0 18.9567V19.0433C0 29.5128 8.4872 38 18.9567 38H19.0433C29.5128 38 38 29.5128 38 19.0433V18.9567C38 8.48722 29.5128 0 19.0433 0Z" fill="#00B0F2"/>
<path d="M7.19614 18.3509C7.24939 18.3243 7.30267 18.299 7.35459 18.275C8.25723 17.857 9.17185 17.4656 10.0851 17.0742C10.1344 17.0742 10.2169 17.0169 10.2635 16.9983C10.3341 16.9677 10.4046 16.9384 10.4752 16.9078L10.8813 16.7334C11.1529 16.6175 11.4231 16.5017 11.6947 16.3859C12.2365 16.1542 12.7784 15.9226 13.3202 15.6896C14.4039 15.2263 15.489 14.7617 16.5727 14.2984C17.6564 13.8351 18.7414 13.3704 19.8251 12.9071C20.9088 12.4438 21.9938 11.9792 23.0775 11.5159C24.1612 11.0526 25.2463 10.588 26.33 10.1247C26.5709 10.0208 26.8319 9.86638 27.0901 9.82112C27.3072 9.78251 27.5188 9.70795 27.7372 9.66668C28.1512 9.58813 28.6078 9.55618 29.0046 9.72792C29.1417 9.78783 29.2682 9.8717 29.3734 9.97688C29.8766 10.4748 29.806 11.2922 29.6995 11.9925C28.958 16.8731 28.2164 21.7551 27.4736 26.6357C27.3724 27.3054 27.2339 28.0403 26.7054 28.4636C26.2581 28.8218 25.6217 28.8617 25.0692 28.71C24.5167 28.5568 24.0294 28.236 23.5515 27.9205C21.5691 26.6078 19.5855 25.2951 17.6031 23.9824C17.1318 23.6709 16.6073 23.2635 16.6126 22.6977C16.6153 22.3569 16.819 22.0533 17.0267 21.7831C18.7494 19.5358 21.235 17.9915 23.0842 15.848C23.3451 15.5458 23.5502 15 23.192 14.8256C22.979 14.7217 22.734 14.8628 22.5397 14.9973C20.0953 16.6947 17.6524 18.3935 15.2081 20.091C14.4106 20.6448 13.5745 21.2146 12.6133 21.3504C11.7533 21.4729 10.8879 21.2332 10.0559 20.9883C9.35824 20.7832 8.66193 20.5729 7.96831 20.3559C7.59954 20.2414 7.21878 20.1176 6.93387 19.858C6.64897 19.5984 6.48524 19.1617 6.65698 18.8155C6.76482 18.5985 6.97384 18.4614 7.19351 18.3496L7.19614 18.3509Z" fill="#FEFFFC"/>
</svg>
