<svg width="18" height="18" viewBox="0 0 18 18" fill="none" xmlns="http://www.w3.org/2000/svg">
<path d="M12.6353 10.4351C12.7908 10.0408 13.3487 10.0408 13.5042 10.4351L13.5312 10.5034C13.9109 11.4663 14.6731 12.2285 15.636 12.6082L15.7043 12.6352C16.0986 12.7907 16.0986 13.3486 15.7043 13.5041L15.636 13.5311C14.6731 13.9108 13.9109 14.673 13.5312 15.6359L13.5042 15.7042C13.3487 16.0985 12.7908 16.0985 12.6353 15.7042L12.6084 15.6359C12.2286 14.673 11.4664 13.9108 10.5035 13.5311L10.4352 13.5041C10.041 13.3486 10.041 12.7907 10.4352 12.6352L10.5035 12.6082C11.4664 12.2285 12.2286 11.4663 12.6084 10.5034L12.6353 10.4351Z" fill="white" fill-opacity="0.5"/>
<path fill-rule="evenodd" clip-rule="evenodd" d="M9.03672 2C10.2334 1.99999 11.1813 1.99998 11.9231 2.09972C12.6865 2.20236 13.3044 2.41862 13.7918 2.90592C14.279 3.39323 14.4953 4.01115 14.598 4.77459C14.6977 5.51639 14.6977 6.46427 14.6977 7.66094V8.38621C14.6977 9.33424 14.6977 10.1531 14.6667 10.8591C14.5004 10.6371 14.3626 10.3932 14.2614 10.1366C13.8349 9.05522 12.3046 9.05522 11.8781 10.1366C11.5811 10.8897 10.8897 11.5811 10.1366 11.8781C9.05521 12.3046 9.05521 13.8349 10.1366 14.2614C10.638 14.4591 11.0909 14.7968 11.4261 15.2125C11.396 15.2169 11.3657 15.2212 11.3353 15.2253C10.4161 15.3488 9.23819 15.3488 7.73505 15.3488H7.66091C6.46424 15.3488 5.51639 15.3488 4.77459 15.2491C4.01115 15.1465 3.39323 14.9302 2.90592 14.4429C2.41862 13.9556 2.20236 13.3377 2.09972 12.5742C1.99998 11.8324 1.99999 10.8846 2 9.68789V7.66093C1.99999 6.46425 1.99998 5.5164 2.09972 4.77459C2.20236 4.01115 2.41862 3.39323 2.90592 2.90592C3.39323 2.41862 4.01115 2.20236 4.77459 2.09972C5.5164 1.99998 6.46425 1.99999 7.66093 2H9.03672ZM5.74418 5.25581C5.47447 5.25581 5.25581 5.47447 5.25581 5.74418C5.25581 6.0139 5.47447 6.23256 5.74418 6.23256H10.9535C11.2232 6.23256 11.4419 6.0139 11.4419 5.74418C11.4419 5.47447 11.2232 5.25581 10.9535 5.25581H5.74418ZM5.74418 8.18604C5.47447 8.18604 5.25581 8.4047 5.25581 8.67442C5.25581 8.94413 5.47447 9.16279 5.74418 9.16279H10.9535C11.2232 9.16279 11.4419 8.94413 11.4419 8.67442C11.4419 8.4047 11.2232 8.18604 10.9535 8.18604H5.74418ZM5.74418 11.1163C5.47447 11.1163 5.25581 11.3349 5.25581 11.6046C5.25581 11.8744 5.47447 12.093 5.74418 12.093H8.34883C8.61855 12.093 8.83721 11.8744 8.83721 11.6046C8.83721 11.3349 8.61855 11.1163 8.34883 11.1163H5.74418Z" fill="white" fill-opacity="0.5"/>
</svg>
