<svg width="38" height="38" viewBox="0 0 38 38" fill="none" xmlns="http://www.w3.org/2000/svg">
<path d="M19.0433 0H18.9567C8.48722 0 0 8.48722 0 18.9567V19.0433C0 29.5128 8.48722 38 18.9567 38H19.0433C29.5128 38 38 29.5128 38 19.0433V18.9567C38 8.48722 29.5128 0 19.0433 0Z" fill="black"/>
<path d="M24.9662 9.65177H28.1235L21.2257 17.556L29.3405 28.3119H22.9867L18.0101 21.7885L12.3158 28.3119H9.1566L16.5345 19.8574L8.75 9.65177H15.2651L19.7635 15.6144L24.9662 9.65177ZM23.8581 26.4172H25.6076L14.3145 11.447H12.4371L23.8581 26.4172Z" fill="white"/>
</svg>
