<svg width="18" height="18" viewBox="0 0 18 18" fill="none" xmlns="http://www.w3.org/2000/svg">
<path d="M10.717 9.62635C10.6109 10.065 10.1098 10.3751 9.10753 10.9951C8.13859 11.5945 7.65419 11.8942 7.26376 11.7737C7.10234 11.7239 6.95528 11.6293 6.83668 11.499C6.5498 11.1839 6.5498 10.5725 6.5498 9.34999C6.5498 8.12744 6.5498 7.51612 6.83668 7.20096C6.95528 7.07066 7.10234 6.97607 7.26376 6.92626C7.65419 6.8058 8.13859 7.10549 9.10753 7.70485C10.1098 8.32491 10.6109 8.63494 10.717 9.07363C10.7607 9.25472 10.7607 9.44526 10.717 9.62635Z" stroke="white" stroke-width="1.05" stroke-linejoin="round"/>
<path d="M15.2984 8.3C15.3 8.62907 15.3 8.97851 15.3 9.35C15.3 12.4848 15.3 14.0522 14.3262 15.0262C13.3523 16 11.7848 16 8.65 16C5.51516 16 3.94774 16 2.97387 15.0262C2 14.0522 2 12.4848 2 9.35C2 6.21516 2 4.64774 2.97387 3.67387C3.94774 2.7 5.51516 2.7 8.65 2.7C9.02149 2.7 9.37093 2.7 9.7 2.70161" stroke="white" stroke-width="1.05" stroke-linejoin="round"/>
<path d="M13.5501 2L13.7306 2.48792C13.9674 3.12771 14.0857 3.44761 14.3191 3.68097C14.5525 3.91434 14.8724 4.03271 15.5122 4.26946L16.0001 4.45L15.5122 4.63054C14.8724 4.86729 14.5525 4.98567 14.3191 5.21903C14.0857 5.45239 13.9674 5.77229 13.7306 6.41208L13.5501 6.9L13.3696 6.41208C13.1328 5.77229 13.0145 5.45239 12.7811 5.21903C12.5477 4.98567 12.2278 4.86729 11.588 4.63054L11.1001 4.45L11.588 4.26946C12.2278 4.03271 12.5477 3.91434 12.7811 3.68097C13.0145 3.44761 13.1328 3.12771 13.3696 2.48792L13.5501 2Z" stroke="white" stroke-width="1.05" stroke-linejoin="round"/>
</svg>
