<svg width="38" height="38" viewBox="0 0 38 38" fill="none" xmlns="http://www.w3.org/2000/svg">
<path d="M19.0433 0H18.9567C8.48722 0 0 8.48722 0 18.9567V19.0433C0 29.5128 8.48722 38 18.9567 38H19.0433C29.5128 38 38 29.5128 38 19.0433V18.9567C38 8.48722 29.5128 0 19.0433 0Z" fill="#00E510"/>
<path d="M22.7042 24.5579C17.8408 24.5579 13.8841 20.5998 13.8828 15.7365C13.8841 14.5037 14.888 13.5012 16.1181 13.5012C16.2446 13.5012 16.3697 13.5119 16.4895 13.5332C16.7531 13.5771 17.0034 13.6663 17.2338 13.8008C17.267 13.8207 17.2897 13.8527 17.295 13.89L17.8089 17.1291C17.8155 17.1677 17.8036 17.205 17.7783 17.2329C17.4947 17.5471 17.1326 17.7734 16.7292 17.8866L16.5348 17.9412L16.608 18.1289C17.271 19.817 18.621 21.1657 20.3105 21.8313L20.4982 21.9059L20.5527 21.7115C20.6659 21.3081 20.8922 20.946 21.2064 20.6624C21.2291 20.6411 21.2597 20.6305 21.2903 20.6305C21.297 20.6305 21.3036 20.6305 21.3116 20.6318L24.5507 21.1457C24.5893 21.1524 24.6213 21.1737 24.6413 21.2069C24.7744 21.4373 24.8636 21.6889 24.9089 21.9525C24.9302 22.0696 24.9395 22.1934 24.9395 22.3226C24.9395 23.5541 23.937 24.5565 22.7042 24.5579Z" fill="#FDFDFD"/>
<path d="M31.3278 17.9329C31.0656 14.9693 29.7076 12.2202 27.5043 10.1926C25.2876 8.15297 22.4119 7.02933 19.4045 7.02933C12.8038 7.02933 7.43322 12.3999 7.43322 19.0006C7.43322 21.2159 8.04428 23.374 9.2012 25.2538L6.62109 30.9652L14.882 30.0852C16.3185 30.6737 17.8388 30.9719 19.4031 30.9719C19.8145 30.9719 20.2366 30.9506 20.6599 30.9066C21.0327 30.8667 21.4095 30.8081 21.7796 30.7336C27.3072 29.6166 31.3425 24.7106 31.3744 19.0645V19.0006C31.3744 18.6411 31.3585 18.2817 31.3265 17.9329H31.3278ZM15.2002 27.5783L10.6297 28.0656L11.9943 25.0421L11.7214 24.676C11.7014 24.6494 11.6815 24.6228 11.6588 24.5922C10.474 22.956 9.84822 21.0229 9.84822 19.0019C9.84822 13.7325 14.1351 9.44568 19.4045 9.44568C24.341 9.44568 28.5254 13.2972 28.9288 18.2138C28.9501 18.4774 28.9621 18.7423 28.9621 19.0033C28.9621 19.0778 28.9607 19.151 28.9594 19.2296C28.8582 23.6376 25.7789 27.3813 21.4707 28.3345C21.1419 28.4077 20.805 28.4637 20.4695 28.4996C20.1207 28.5395 19.7626 28.5595 19.4071 28.5595C18.1411 28.5595 16.9109 28.3145 15.7487 27.8299C15.6195 27.778 15.493 27.7221 15.3746 27.6649L15.2015 27.581L15.2002 27.5783Z" fill="#FDFDFD"/>
</svg>
